Coordinates
version=1
nRows=12
nColumns=63
inDegrees=yes

Units are S.I. units (second, meters, Newtons, ...)
If the header above contains a line with 'inDegrees', this indicates whether rotational values are in degrees (yes) or radians (no).

endheader
time	pelvis_tilt	pelvis_list	pelvis_rotation	pelvis_tx	pelvis_ty	pelvis_tz	hip_flexion_r	hip_adduction_r	hip_rotation_r	knee_angle_r	knee_angle_r_beta	ankle_angle_r	subtalar_angle_r	mtp_angle_r	hip_flexion_l	hip_adduction_l	hip_rotation_l	knee_angle_l	knee_angle_l_beta	ankle_angle_l	subtalar_angle_l	mtp_angle_l	L5_S1_Flex_Ext	L5_S1_Lat_Bending	L5_S1_axial_rotation	L4_L5_Flex_Ext	L4_L5_Lat_Bending	L4_L5_axial_rotation	L3_L4_Flex_Ext	L3_L4_Lat_Bending	L3_L4_axial_rotation	L2_L3_Flex_Ext	L2_L3_Lat_Bending	L2_L3_axial_rotation	L1_L2_Flex_Ext	L1_L2_Lat_Bending	L1_L2_axial_rotation	L1_T12_Flex_Ext	L1_T12_Lat_Bending	L1_T12_axial_rotation	Abs_r3	Abs_r2	Abs_r1	Abs_t1	Abs_t2	neck_flexion	neck_bending	neck_rotation	arm_flex_r	arm_add_r	arm_rot_r	elbow_flex_r	pro_sup_r	wrist_flex_r	wrist_dev_r	arm_flex_l	arm_add_l	arm_rot_l	elbow_flex_l	pro_sup_l	wrist_flex_l	wrist_dev_l
0.000000	-0.654497	-6.694038	105.590189	0.234681	0.895474	0.637095	-2.956706	-1.038950	-2.184280	0.909164	0.015868	10.950801	-4.110152	0.000000	0.294743	2.101306	14.876405	3.016760	0.052652	9.562784	-7.778054	0.000000	-0.137013	-0.210763	-0.943826	-0.254447	-0.280315	-1.002815	-0.225099	-0.512449	-1.002815	-0.156592	-0.512449	-0.825848	-0.127230	-0.429788	-0.766859	-0.078289	-0.326472	-0.707869	-0.978670	-2.384192	-5.249276	0.000000	0.000000	22.664643	-1.330747	6.140600	7.232340	-14.387744	90.787066	20.701115	44.057264	-9.134020	-9.333412	-5.117711	-18.033515	34.976097	32.934029	89.043641	-8.229844	-14.902596
0.016667	-0.649386	-6.415166	106.154597	0.233374	0.894912	0.636259	-3.479354	-0.875583	-1.540429	0.855441	0.014930	10.807918	-6.033361	0.000000	-0.161851	2.047309	17.014028	2.579077	0.045013	9.194936	-9.896930	0.000000	-0.150052	-0.200417	-1.086069	-0.278662	-0.266555	-1.153949	-0.246521	-0.487294	-1.153949	-0.171495	-0.487294	-0.950311	-0.139339	-0.408691	-0.882431	-0.085740	-0.310446	-0.814552	-1.071809	-2.267159	-6.040391	0.000000	0.000000	22.398342	-1.728871	5.625442	8.750128	-12.889317	108.741826	17.523286	30.527371	-7.899208	-10.394543	-4.320266	-17.740402	40.420148	30.564032	83.927838	-7.368930	-13.753532
0.033333	-0.667640	-6.184226	106.627664	0.232404	0.894507	0.635570	-3.907035	-0.763715	-1.072004	0.807226	0.014089	10.723538	-7.513493	0.000000	-0.536981	2.018159	18.708362	2.243664	0.039159	8.924696	-11.533321	0.000000	-0.160329	-0.199379	-1.199152	-0.297747	-0.265174	-1.274099	-0.263404	-0.484770	-1.274099	-0.183240	-0.484770	-1.049258	-0.148881	-0.406574	-0.974311	-0.091612	-0.308838	-0.899364	-1.145214	-2.255416	-6.669322	0.000000	0.000000	22.148875	-1.928693	5.105650	9.876293	-11.807123	121.392223	15.212468	21.367156	-7.151196	-11.070660	-3.589708	-17.534685	44.598417	28.744419	79.333277	-6.894047	-12.624614
0.050000	-0.706312	-5.997538	107.014259	0.231740	0.894248	0.635022	-4.246245	-0.698613	-0.760890	0.764295	0.013339	10.694740	-8.587416	0.000000	-0.836554	2.011253	19.989467	2.001497	0.034933	8.743857	-12.723634	0.000000	-0.168071	-0.206513	-1.285300	-0.312126	-0.274663	-1.365631	-0.276125	-0.502116	-1.365631	-0.192089	-0.502116	-1.124637	-0.156071	-0.421122	-1.044306	-0.096036	-0.319889	-0.963975	-1.200518	-2.336118	-7.148451	0.000000	0.000000	21.911295	-1.952302	4.587868	10.649973	-11.098465	129.270753	13.702290	16.112701	-6.807704	-11.379806	-2.922050	-17.407050	47.620192	27.440616	75.267332	-6.766849	-11.522922
0.066667	-0.762454	-5.851423	107.319254	0.231352	0.894122	0.634607	-4.503478	-0.675543	-0.588969	0.726423	0.012678	10.718600	-9.292000	0.000000	-1.066479	2.023990	20.887400	1.843554	0.032176	8.644213	-13.504277	0.000000	-0.173509	-0.220684	-1.346739	-0.322223	-0.293509	-1.430911	-0.285057	-0.536570	-1.430911	-0.198303	-0.536570	-1.178397	-0.161120	-0.450018	-1.094226	-0.099143	-0.341839	-1.010054	-1.239355	-2.496418	-7.490160	0.000000	0.000000	21.680656	-1.821791	4.078739	11.110308	-10.720641	132.909913	12.926383	14.300087	-6.786453	-11.340027	-2.313304	-17.348180	49.594758	26.618048	71.737374	-6.948985	-10.455539
0.083333	-0.833121	-5.742198	107.547517	0.231209	0.894117	0.634321	-4.685229	-0.689769	-0.538125	0.693387	0.012102	10.792195	-9.664113	0.000000	-1.232665	2.053769	21.432221	1.760813	0.030732	8.617558	-13.911657	0.000000	-0.176869	-0.240755	-1.385697	-0.328464	-0.320204	-1.472303	-0.290578	-0.585372	-1.472303	-0.202144	-0.585372	-1.212485	-0.164241	-0.490948	-1.125879	-0.101063	-0.372930	-1.039273	-1.263358	-2.723470	-7.706832	0.000000	0.000000	21.452013	-1.559248	3.584906	11.296437	-10.630951	132.842200	12.818376	15.465397	-7.005164	-10.969365	-1.759481	-17.348759	50.631401	26.242139	68.750779	-7.402109	-9.429544
0.100000	-0.915364	-5.666185	107.703919	0.231280	0.894221	0.634157	-4.797991	-0.736559	-0.590241	0.664962	0.011606	10.912603	-9.740625	0.000000	-1.341020	2.097990	21.653988	1.744249	0.030443	8.655684	-13.982179	0.000000	-0.178382	-0.265592	-1.404400	-0.331272	-0.353237	-1.492175	-0.293063	-0.645760	-1.492175	-0.203872	-0.645760	-1.228850	-0.165645	-0.541595	-1.141075	-0.101927	-0.411402	-1.053300	-1.274162	-3.004427	-7.810850	0.000000	0.000000	21.220419	-1.186766	3.113012	11.247501	-10.786696	129.600111	13.311900	19.144713	-7.381558	-10.285864	-1.256593	-17.399470	50.839408	26.278314	66.314918	-8.087871	-8.452019
0.116667	-1.006237	-5.619703	107.793329	0.231536	0.894420	0.634108	-4.848259	-0.811178	-0.727200	0.640923	0.011186	11.076900	-9.558405	0.000000	-1.397454	2.154049	21.582761	1.784841	0.031151	8.750385	-13.752251	0.000000	-0.178275	-0.294058	-1.405073	-0.331074	-0.391097	-1.492890	-0.292888	-0.714973	-1.492890	-0.203750	-0.714973	-1.229439	-0.165546	-0.599643	-1.141622	-0.101866	-0.455496	-1.053805	-1.273400	-3.326444	-7.814595	0.000000	0.000000	20.980929	-0.726434	2.669702	11.002638	-11.145176	123.716143	14.340585	24.874116	-7.833355	-9.307568	-0.800654	-17.490999	50.328064	26.691999	64.437167	-8.967924	-7.530045
0.133333	-1.102793	-5.599072	107.820616	0.231945	0.894704	0.634169	-4.842529	-0.908891	-0.930886	0.621047	0.010839	11.282164	-9.154322	0.000000	-1.407874	2.219347	21.248598	1.873566	0.032700	8.893453	-13.258281	0.000000	-0.176778	-0.325018	-1.389944	-0.328294	-0.432274	-1.476815	-0.290428	-0.790250	-1.476815	-0.202039	-0.790250	-1.216201	-0.164156	-0.662777	-1.129329	-0.101011	-0.503453	-1.042458	-1.262705	-3.676673	-7.730450	0.000000	0.000000	20.728596	-0.200343	2.261619	10.600987	-11.663691	115.722792	15.838061	32.189688	-8.278278	-8.052522	-0.387674	-17.614029	49.206656	27.448617	63.124897	-10.003918	-6.670704
0.150000	-1.202084	-5.600611	107.790652	0.232476	0.895058	0.634334	-4.787294	-1.024965	-1.183182	0.605109	0.010561	11.525471	-8.565245	0.000000	-1.378190	2.291283	20.681558	2.001401	0.034931	9.076683	-12.536675	0.000000	-0.174119	-0.357337	-1.361238	-0.323356	-0.475258	-1.446315	-0.286060	-0.868829	-1.446315	-0.199000	-0.868829	-1.191083	-0.161687	-0.728682	-1.106006	-0.099491	-0.553515	-1.020928	-1.243712	-4.042268	-7.570797	0.000000	0.000000	20.458475	0.369416	1.895405	10.081690	-12.299541	106.152555	17.737958	40.627511	-8.634047	-6.538768	-0.013667	-17.759243	47.584469	28.513595	62.385483	-11.157505	-5.881076
0.166667	-1.301164	-5.620641	107.708304	0.233100	0.895472	0.634596	-4.689048	-1.154665	-1.465971	0.592884	0.010348	11.803899	-7.828043	0.000000	-1.314310	2.367253	19.911700	2.159322	0.037687	9.291868	-11.623840	0.000000	-0.170527	-0.389879	-1.321182	-0.316685	-0.518538	-1.403756	-0.280158	-0.947951	-1.403756	-0.194895	-0.947951	-1.156034	-0.158351	-0.795040	-1.073460	-0.097439	-0.603922	-0.990887	-1.218054	-4.410384	-7.348019	0.000000	0.000000	20.165619	0.960753	1.577706	9.483883	-13.010026	95.537930	19.973906	49.723668	-8.818383	-4.784351	0.325357	-17.917327	45.570791	29.852357	62.226297	-12.390337	-5.168242
0.183333	-1.394691	-5.652630	107.577501	0.233733	0.895910	0.634982	-4.555475	-1.290589	-1.658156	0.582121	0.010160	12.101548	-7.082603	0.000000	-1.221838	2.444462	18.936050	2.340305	0.040846	9.508344	-10.583498	0.000000	-0.165416	-0.419774	-1.264181	-0.307193	-0.558299	-1.343192	-0.271761	-1.020638	-1.343192	-0.189054	-1.020638	-1.106158	-0.153605	-0.856003	-1.027147	-0.094518	-0.650230	-0.948136	-1.181547	-4.748566	-7.030996	0.000000	0.000000	19.828923	1.467353	1.225012	8.878914	-13.647242	86.025217	22.322326	56.788131	-8.157192	-2.950271	0.748886	-18.084356	43.824676	31.226229	62.804730	-13.740414	-4.656997
